<svg width="24" height="24" fill="none" xmlns="http://www.w3.org/2000/svg"><path d="M16.444 6.833a2.86 2.86 0 0 0-.813-2.003A2.75 2.75 0 0 0 13.667 4H7a2.75 2.75 0 0 0-1.964.83 2.862 2.862 0 0 0-.814 2.003v3.514a6.008 6.008 0 0 1 6.659.734 6.24 6.24 0 0 1 1.954 2.955 6.353 6.353 0 0 1 .046 3.564h.786a2.75 2.75 0 0 0 1.964-.83c.52-.531.813-1.252.813-2.003V6.833zm1.112 1.621v4.706l3.07 2.663a.826.826 0 0 0 .89.124.839.839 0 0 0 .353-.314.862.862 0 0 0 .131-.458v-8.69a.863.863 0 0 0-.13-.455.838.838 0 0 0-.35-.313.819.819 0 0 0-.887.117l-3.077 2.62zM12 15.9c0 1.353-.527 2.65-1.464 3.606A4.95 4.95 0 0 1 7 21a4.95 4.95 0 0 1-3.536-1.494A5.152 5.152 0 0 1 2 15.9c0-1.353.527-2.65 1.464-3.606A4.95 4.95 0 0 1 7 10.8a4.95 4.95 0 0 1 3.536 1.494A5.152 5.152 0 0 1 12 15.9zm-4.444-2.267a.573.573 0 0 0-.163-.4.55.55 0 0 0-.786 0 .573.573 0 0 0-.163.4v1.7H4.778a.55.55 0 0 0-.393.166.573.573 0 0 0 0 .802.55.55 0 0 0 .393.166h1.666v1.7c0 .15.059.294.163.4a.55.55 0 0 0 .786 0 .573.573 0 0 0 .163-.4v-1.7h1.666a.55.55 0 0 0 .393-.166.573.573 0 0 0 0-.802.55.55 0 0 0-.393-.166H7.556v-1.7z" fill="#6356D0"/></svg>